<?xml version="1.0" standalone="yes"?>
<svg xmlns="http://www.w3.org/2000/svg" width="512" height="512" viewBox="0 0 512 512" style="overflow: visible;" data-bbox="5.684228722479048e-14 1.4136603905321714 512.0000000000001 510.5863396094679"><path display="inline" fill-rule="evenodd" clip-rule="evenodd" d="M58.032 42.858c7.372 7.211 19.141 7.097 26.05-0.015   c1.881 1.9 3.76 3.801 5.642 5.703c-10.692 11.08-28.266 9.842-37.343-0.023l0 0c-6.451-6.287-14.225-9.708-23.336-9.735   c-9.114-0.025-16.912 3.342-23.41 9.621C3.739 46.47 1.869 44.556 0 42.643C17.826 25.145 43.575 28.042 58.032 42.858z" transform="matrix(5.234897136688232, 0, 0, 5.685286045074463, 12.95832347869873, 27.02335548400879)" fill="rgba(0, 156, 234, 1)" data-uid="o_f6j24d6f8_4"></path><path d="M563.8 282c-0.1 0.5-0.2 1-0.3 1.5l0.9 12.2L563.8 282z" fill="#000000" transform="matrix(0.8946863412857056, 0, 0, 0.8946863412857056, 7.039011001586914, 4.408565998077393)" data-uid="o_f6j24d6f8_5"></path><path d="M555.4 396.8c-2.3 2.9-3.8 4.1-4.5 3.3c-0.5-0.7-0.5-2.5 0.2-6.1c0.1-1.1-1.2 0.8-3.3 4.4
			c-1 1.8-2.3 4.1-3.7 6.7s-3.2 5.4-5 8.4c-7.2 11.9-16.9 25.9-24 33.9c-4.7 4.2-3.5 0.4 0.5-7.1c0.5-1 1.1-1.9 1.6-3l1.7-3.4
			c1.2-2.4 2.5-5 4-7.6l4.1-8.6c0.7-1.5 1.4-2.9 2.1-4.5l1.9-4.6c1.4-3.7 3-7.5 4.2-11.4c0.3-0.4 0.5-0.8 0.8-1.2l1.7-4.8l0.8-2.3
			l0.7-2.3c-0.9 2-2 4-3.1 5.9l-3.1 5.6c-0.5 0.9-1 1.9-1.6 2.8l-1.6 2.6l-3.2 5.1c-1.5 2.9-3.1 5.6-4.8 8.3l2.3-4.5l-4.6 6.4
			l-2.2 3c-0.7 1-1.5 1.8-2.2 2.7c-1.4 1.7-2.8 3.3-4.1 4.8c-1.2 1.4-2.4 2.7-3.7 3.9c-1.9 1.7-4.2 3.9-6.7 6.7
			c-1.2 1.4-2.7 2.8-4.2 4.3s-3 3.2-4.7 4.9c-1.2 1.7-2.6 3.2-4 4.8l-4.4 5c2.8-3.3 4.6-5.5 5.8-7.2l-4.7 4.7
			c-1.6 1.6-3.3 3.3-5 4.9l-1.7 1.5c2.9-4.4 6.1-8.5 9.6-12.5c-4.7 4.7-9.8 10.1-15.6 16l3.8-4.1c1.4-1.5 2.9-3 4.3-4.7l4.4-5.2
			c-2.1 2.3-3.7 3.8-3.4 3c1-1.5 2.3-3.1 3.7-4.9c-11.1 11.1-22.7 20.5-32.2 26.4l-3.4 2.1c-1.1 0.7-2.2 1.2-3.2 1.8
			c-2 1.1-3.8 2-5.4 2.6c-1.2 0.6-2.5 1-3.9 1.3c-0.7 0.2-1.5 0.2-2.2-0.2l-7.3 4.9c-3.8 2.4-7.3 4.4-10.5 6.3s-6.3 3.3-9 4.6
			s-5.2 2.4-7.4 3.3s-4.1 1.7-5.8 2.3c-6.7 2.3-9.3 2.5-9 1.3l-3.7 1.6l-3.7 1.3l-7.5 2.8l-7.6 2.5l-3.7 1.2l-3.7 1l-7.3 1.9
			c-2.4 0.6-4.7 1-7 1.4s-4.4 0.9-6.5 1.2l-6 0.8l-4.6 0.5c-1.5 0.2-3 0.2-4.6 0.3c-3 0.2-6 0.4-8.9 0.5c-5.9 0-11.7 0.2-17.3-0.3
			c-11.1-0.6-22.2-1.9-33.1-4.1l-11.1-0.8l-5.2-0.6l-1.9-0.5c-1.6-0.4-3.2-0.8-4.7-1.2l-4.4-1.4c-2.8-0.9-5.2-1.6-7.1-2.4
			c-1.3-0.5-2.5-1.1-3.7-1.8c1.4-0.2 4.4 0.7 8.5 1.6c2 0.5 4.3 1.1 6.7 1.7s4.9 1 7.4 1.5l-2.7-1.3l-3.4-0.9
			c-6-1.3-12.1-2.4-17.5-3.7l-4.8-0.7c-1.6-0.2-3.2-0.6-4.9-1l-4.7-1c-1.5-0.3-3-0.6-4.4-1c2.3 0.1 4.7 0.5 6.9 1
			c1.6 0.3 3.5 0.8 5.4 1.3s4.2 0.9 6.4 1.4c2.9 0.5 5.9 0.8 8.8 1c-13.5-4.4-26.7-9.8-39.3-16.3c-1.9-0.8-3.7-1.5-5.5-2.2l0.7 0.3
			l3.9 1.5l-2.8-1.3c-0.9-0.5-1.9-0.9-2.8-1.5c-2.7-1.3-6.2-2.7-10.1-4.6l-6.2-3.1c-1.1-0.6-2.2-1.1-3.3-1.7l-3.4-2
			c-10.2-5.7-19.9-12.2-29.1-19.4c-1.2-1.5-2.5-3.1-3.9-4.7c-1.3-1.6-2.6-3.2-3.9-5l-2.1-2.5l-1.1-1.3c-0.3-0.4-0.7-0.9-1-1.3
			c-1.3-1.8-2.7-3.5-4.2-5.3c-0.7-0.9-1.5-1.8-2.2-2.7l-2.1-2.8c-1.4-1.9-2.9-3.8-4.4-5.7c-1.4-2-2.9-4-4.3-6l-2.2-3l-2.1-3.2
			l-4.1-6l-3.9-6.3l-2-3.2l-1.9-3.3l-3.9-6.6c-2.4-4.6-5-9.1-7.3-14l-1.8-3.6l-0.9-1.8c-0.3-0.6-0.5-1.2-0.8-1.9l-3.3-7.4
			c-0.6-1.2-1-2.5-1.5-3.8l-1.5-3.9l-1.5-3.9l-1.3-4c-0.9-2.7-1.8-5.3-2.6-8l-2.3-8.3l-0.6-2.1l-0.5-2.1l-1-4.2l-1-4.2
			c-0.3-1.4-0.5-2.8-0.8-4.3l-1.5-8.6l-1.1-8.7c-1.7-14.3-2-28.7-1.1-43c0.8-11.9 2.5-23.8 5.3-35.4c0.3-1.5 0.8-3.1 1.2-4.7
			c0.4-1.6 0.9-3.3 1.5-4.9c1.2-3.2 2.4-6.4 3.5-9.2c2.6-5.5 4.6-9.5 4.6-9.5c3.7-9.5 8-18.8 12.8-27.9c2.2-4.4 4.7-8.5 7-12.6
			c1.1-2.1 2.5-4 3.7-6l3.7-5.8c9.7-14.4 20.9-27.9 33.3-40.1c12.7-12.5 26.7-23.5 41.8-32.8c11.3-6.8 23.1-12.6 35.3-17.3
			c13.9-5.4 28.4-9.4 43.2-11.9c2.9-0.5 5.7-0.8 8.6-1.3l4.3-0.6c1.4-0.2 2.8-0.3 4.2-0.4l8.4-0.8c2.8-0.2 5.6-0.3 8.4-0.4l4.2-0.2
			c1.4-0.1 2.8 0 4.1 0h8.2c1.4 0 2.7 0.1 4.1 0.1l4.1 0.2l4.1 0.2l2 0.1l2 0.2c16.6 1.3 33.1 4.1 49.1 8.4l10.3 3l10 3.4
			c1.7 0.5 3.3 1.2 5 1.9l4.9 1.9c3.3 1.2 6.5 2.7 9.7 4.2c25.5 11.4 49 27 69.5 46l3.8 3.6l1.9 1.8c0.6 0.6 1.2 1.3 1.8 1.9
			c2.4 2.6 4.9 5.1 7.3 7.7l7 8c1.2 1.3 2.2 2.8 3.4 4.2l3.3 4.2c2.2 2.9 4.3 6 6.2 9.2l1.6 2.6c0.5 0.9 1 1.7 1.5 2.6l2.9 5.4
			c1 1.8 2 3.6 2.9 5.5l2.6 5.4c0.9 1.8 1.7 3.5 2.6 5.1s1.5 3.3 2.3 4.8l2 4.3l1 2.2l0.9 2.2l3.9 9.1c2.3 6.2 4.8 12.5 6.7 18.9
			l1.5 4.7c0.5 1.6 0.9 3.2 1.3 4.8l2.5 9.3l2 9.1c0.3 1.5 0.7 2.9 1 4.4l0.8 4.2l1.5 8l1 7.3l0.9 6.4c0.2 2 0.4 3.7 0.6 5.3
			c0.8 6.3 1.5 9.4 2 7.9c0.7-1.1 1.5-3.3 2.1-6.6c0.9-4.1 1.6-8.3 1.9-12.6c0.2-2.6 0.3-5.4 0.5-8.4s-0.1-6.2-0.1-9.6
			c-0.1-1.7 0-3.5-0.2-5.3l-0.5-5.5c-0.3-3.8-0.7-7.7-1.4-11.8c-2.7-18.5-7.6-36.6-14.7-53.9l-3-7.2l-3.4-7.1
			c-2.2-4.8-4.8-9.5-7.5-14.3c-1.3-2.4-2.7-4.7-4.2-7l-4.4-7l-4.8-6.8c-1.6-2.3-3.2-4.6-4.9-6.7c-13.9-18.5-30-35.2-48-49.7
			c-2.3-1.8-4.5-3.6-6.8-5.4l-7-5.1l-3.5-2.5l-3.6-2.4l-7.3-4.8c-10-6.2-20.3-11.7-31-16.6c-5.3-2.6-10.8-4.7-16.3-6.9l-2.1-0.8
			l-2.1-0.7l-4.2-1.5l-4.2-1.5c-1.4-0.5-2.8-1-4.2-1.4c-5.6-1.7-11.3-3.5-17.2-4.8c-2.9-0.7-5.8-1.4-8.7-2l-8.8-1.7L329 3.5
			l-4.5-0.6l-9-1.2c-3-0.3-6-0.5-9-0.8s-6-0.6-9.1-0.6l-9.1-0.3C287.6 0 286.8 0 286 0h-2.3l-4.6 0.1l-4.6 0.1c-1.5 0-3.1 0-4.6 0.2
			L260.8 1c-35.9 3-70.9 12.9-103 29.1c-3 1.6-6.1 3-9 4.9l-5.2 3l-2.6 1.6l-1.3 0.8l-1.3 0.8l-10.3 6.7l-10 7.3
			c-3.3 2.5-6.5 5.2-9.7 7.8c-23.5 19.8-43.8 43.2-60 69.3l-2.5 4l-2.3 4l-4.3 7.4l-6.9 12.9c-2.9 5.8-6 11.6-8.4 17.5l-2 4.4
			l-1 2.2c-0.3 0.7-0.6 1.5-0.9 2.2l-3.5 9c-0.7 1.7-1.2 3.4-1.8 5.1l-1.6 5l-1.7 5.1l-1.4 5.1l-1.4 5.1c-0.5 1.7-1 3.4-1.3 5.2
			L5.2 237c-0.4 1.7-0.7 3.5-1 5.2l-0.9 5.2l-0.9 5.3L1.8 258l-0.6 5.3l-0.3 2.6c-0.1 0.9-0.2 1.8-0.2 2.6L0 279.2l0.2 2.8l0.3 2.9
			l0.6 5.8l0.6 5.7c0.3 1.9 0.6 3.7 0.9 5.4c0.2 3.3 0.3 6.7 0.6 10.1l1.2 10.5l0.3 2.7c0.1 0.9 0.3 1.8 0.4 2.7l0.9 5.4l1 5.5
			c0.3 1.8 0.8 3.6 1.2 5.5l1.3 5.5c0.4 1.9 0.8 3.7 1.4 5.5l3.2 11.1c1.2 3.7 2.5 7.4 3.8 11.1c0.3 0.9 0.6 1.9 1 2.8l1 2.8
			l2.2 5.5c6.1 14.6 13.5 28.6 21.9 42c8.1 12.7 17.2 24.8 27.3 36.1l0.3 0.4c-1.9-1.4-1.8-0.7-0.5 1.2c2 3 4.3 5.8 6.7 8.5
			c5.6 6.2 11.5 12.1 17.7 17.7c8.5 7.5 16 13.6 23 18.8l5.1 3.8l2.5 1.8c0.8 0.6 1.7 1.1 2.5 1.7l9.5 6.4l9.4 5.8
			c0.8 0.5 1.6 1 2.4 1.4l2.4 1.3l4.9 2.7c1.7 0.9 3.3 1.9 5.1 2.8l5.4 2.7l5.7 2.8c1.9 0.9 4 1.8 6.1 2.7l4.9 2l2.5 1
			c0.8 0.3 1.7 0.6 2.5 0.9l10.1 3.5c18.2 5.8 36.9 9.8 55.8 11.8c19 2 38 2.4 57.1 1.1c3.5-0.2 6.8-0.8 9.9-1.1l4.7-0.6
			c1.5-0.2 3-0.3 4.5-0.6l8.3-1.4l3.9-0.7c1.3-0.2 2.5-0.5 3.7-0.8l6.9-1.5c2.2-0.5 4.3-0.9 6.3-1.4c4-1 7.6-1.9 11-2.6l9-2.4
			c2.7-0.7 5.3-1.3 7.6-2c4.6-1.3 8.5-2.3 12-3.3c7-2.2 13.1-3.7 21.3-7.3l3.2-1.4c1.1-0.5 2.3-1 3.4-1.6c2.4-1.2 4.9-2.6 7.7-4.1
			c1.4-0.8 2.9-1.5 4.3-2.5l4.6-2.9c3.2-2.1 6.8-4.3 10.5-7.1c13.9-10.1 27-21.4 39.2-33.5c13.2-13.3 25.3-27.7 36-43.1
			c1.3-2.1 2.6-4.3 4-6.6s2.8-4.5 4.1-6.9l3.8-7c1.2-2.3 2.5-4.5 3.6-6.7c6.4-12.6 8.8-18.2 10.8-21.8c1-1.8 1.7-3.3 2.6-5
			s1.8-3.7 3-6.8l-2.4 5l3.4-8.2C561 388 558.3 392.5 555.4 396.8z M467.3 470.8l-4.4 4.5C464.4 473.7 465.8 472.2 467.3 470.8
			L467.3 470.8z M258.5 524.4l2.8 0.4l2.8 0.3c3.7 0.3 7.2 0.6 10.3 0.7c-0.3 0.1-0.7 0.3-1 0.5c-0.8-0.1-1.5-0.2-2.3-0.3l-5.8-0.6
			l-2.8-0.3l-1.4-0.1l-1.4-0.2c-3.6-0.5-7.1-1-10.3-1.2c0.4-0.1 0.7-0.2 1.1-0.4c0.7 0.1 1.4 0.3 2.2 0.3L258.5 524.4z M184.7 492.4
			c-0.8-0.3-1.6-0.7-2.3-1C183.1 491.6 183.9 492 184.7 492.4L184.7 492.4z" fill="rgba(0, 156, 234, 1)" transform="matrix(0.9070755839347839, -0.0008520901319570839, 0.0008404515101574361, 0.8946859240531921, 5.684228722479048e-14, 1.8936426639556885)" stroke="#009cea" stroke-width="1" data-uid="o_f6j24d6f8_6"></path></svg>